<?xml version="1.0" encoding="UTF-8"?>
<!DOCTYPE svg PUBLIC "-//W3C//DTD SVG 1.1//EN" "http://www.w3.org/Graphics/SVG/1.1/DTD/svg11.dtd">
<!-- Creator: CorelDRAW -->
<svg xmlns="http://www.w3.org/2000/svg" xml:space="preserve" width="6.82666in" height="6.82666in" style="shape-rendering:geometricPrecision; text-rendering:geometricPrecision; image-rendering:optimizeQuality; fill-rule:evenodd; clip-rule:evenodd"
viewBox="0 0 6.82666 6.82666"
 xmlns:xlink="http://www.w3.org/1999/xlink">
 <defs>
  <style type="text/css">
   <![CDATA[
    .fil2 {fill:none}
    .fil5 {fill:#212121}
    .fil8 {fill:#293439}
    .fil10 {fill:#424242}
    .fil1 {fill:#6A1B9A}
    .fil14 {fill:#757575}
    .fil12 {fill:#A61E1E}
    .fil0 {fill:#AB47BC}
    .fil13 {fill:#C62828}
    .fil9 {fill:#C7B7B7}
    .fil3 {fill:#DBC0B2}
    .fil7 {fill:#DFC4B6}
    .fil15 {fill:#E4B7A0}
    .fil6 {fill:#ECCEBE}
    .fil4 {fill:#FFDDCC}
    .fil11 {fill:white}
   ]]>
  </style>
   <clipPath id="id0">
    <path d="M3.41333 0c1.88513,0 3.41333,1.5282 3.41333,3.41333 0,1.88513 -1.5282,3.41333 -3.41333,3.41333 -1.88513,0 -3.41333,-1.5282 -3.41333,-3.41333 0,-1.88513 1.5282,-3.41333 3.41333,-3.41333z"/>
   </clipPath>
 </defs>
 <g id="Layer_x0020_1">
  <metadata id="CorelCorpID_0Corel-Layer"/>
  <path class="fil0" d="M3.41333 0c1.88513,0 3.41333,1.5282 3.41333,3.41333 0,1.88513 -1.5282,3.41333 -3.41333,3.41333 -1.88513,0 -3.41333,-1.5282 -3.41333,-3.41333 0,-1.88513 1.5282,-3.41333 3.41333,-3.41333z"/>
  <g style="clip-path:url(#id0)">
   <g id="_435568408">
    <g>
     <path id="_4928473521" class="fil1" d="M8.86319 9.06627l0 0zm-3.78627 -3.78627l0 0z"/>
     <path id="_492847736" class="fil1" d="M6.18256 7.8883l0 0zm-3.78627 -3.78627l0 0z"/>
     <path id="_492849920" class="fil1" d="M6.20011 7.87859l0 0zm-3.78627 -3.78627l0 0z"/>
     <path id="_492849632" class="fil1" d="M6.21819 7.86869l0 0zm-3.78627 -3.78627l0 0z"/>
     <path id="_492849776" class="fil1" d="M6.23681 7.85859l0 0zm-3.78627 -3.78627l0 0z"/>
     <path id="_492850760" class="fil1" d="M6.25597 7.84831l0 0zm-3.78627 -3.78627l0 0z"/>
     <path id="_492850496" class="fil1" d="M6.27568 7.83783l0 0zm-3.78627 -3.78627l0 0z"/>
     <path id="_492850664" class="fil1" d="M6.81136 7.58102l0 0zm-3.78627 -3.78627l0 0z"/>
     <polygon id="_492850712" class="fil1" points="4.12634,1.80529 7.91261,5.59156 7.93098,5.61502 7.94783,5.64021 7.96321,5.667 7.97718,5.69528 7.98977,5.72492 8.00105,5.7558 8.01107,5.78781 8.01987,5.82083 8.02751,5.85474 8.03405,5.88941 8.03952,5.92472 8.04399,5.96056 8.0475,5.99681 8.05011,6.03334 8.05187,6.07004 8.05282,6.10678 8.05303,6.14346 8.05254,6.17994 8.0514,6.21611 8.04966,6.25184 8.04739,6.28702 8.04462,6.32153 8.04141,6.35525 8.03781,6.38806 8.03387,6.41983 4.2476,2.63356 4.25154,2.60178 4.25514,2.56898 4.25835,2.53526 4.26112,2.50075 4.26339,2.46557 4.26513,2.42983 4.26627,2.39367 4.26676,2.35719 4.26656,2.32051 4.2656,2.28377 4.26384,2.24707 4.26123,2.21054 4.25772,2.17429 4.25325,2.13845 4.24778,2.10313 4.24124,2.06846 4.2336,2.03456 4.2248,2.00154 4.21478,1.96953 4.2035,1.93865 4.19091,1.909 4.17694,1.88073 4.16156,1.85394 4.14471,1.82875 "/>
     <polygon id="_492850640" class="fil1" points="4.36195,2.63522 8.14822,6.4215 8.15249,6.42633 8.1565,6.43156 8.16024,6.43716 8.16372,6.44313 8.16693,6.44944 8.16986,6.45608 8.17252,6.46304 8.17489,6.4703 8.17699,6.47785 8.1788,6.48567 8.18031,6.49375 8.18154,6.50207 8.18247,6.51063 8.1831,6.51939 8.18343,6.52836 8.18346,6.53751 8.18318,6.54682 8.18259,6.5563 8.18168,6.56591 8.18046,6.57565 8.17891,6.5855 8.17705,6.59544 8.17486,6.60547 8.17233,6.61556 8.16948,6.6257 8.1663,6.63589 4.38003,2.84961 4.38322,2.83943 4.38607,2.82929 4.38859,2.8192 4.39078,2.80917 4.39265,2.79922 4.39419,2.78938 4.39541,2.77964 4.39632,2.77003 4.39691,2.76055 4.39719,2.75124 4.39717,2.74209 4.39683,2.73312 4.3962,2.72436 4.39527,2.7158 4.39404,2.70748 4.39253,2.6994 4.39072,2.69158 4.38863,2.68403 4.38625,2.67677 4.38359,2.66981 4.38066,2.66317 4.37745,2.65685 4.37398,2.65089 4.37023,2.64529 4.36622,2.64006 "/>
     <polygon id="_492850880" class="fil1" points="4.38003,2.84961 8.1663,6.63589 8.16281,6.64597 8.15908,6.65583 8.15511,6.66545 8.15092,6.67481 8.14651,6.68393 8.1419,6.69276 8.13709,6.70133 8.13211,6.7096 8.12696,6.71757 8.12165,6.72523 8.11619,6.73258 8.1106,6.73959 8.10488,6.74627 8.09905,6.75259 8.09312,6.75856 8.08709,6.76415 8.08099,6.76937 8.07482,6.7742 8.0686,6.77863 8.06232,6.78265 8.05602,6.78625 8.04969,6.78942 8.04335,6.79215 8.037,6.79443 8.03067,6.79625 8.02436,6.7976 8.01808,6.79848 8.01185,6.79886 8.00567,6.79874 7.99956,6.79811 7.99352,6.79697 7.98758,6.7953 4.20131,3.00902 4.20726,3.0107 4.21329,3.01184 4.2194,3.01247 4.22558,3.01259 4.23181,3.0122 4.23809,3.01133 4.2444,3.00998 4.25073,3.00816 4.25708,3.00588 4.26342,3.00315 4.26975,2.99998 4.27606,2.99637 4.28233,2.99236 4.28856,2.98793 4.29472,2.9831 4.30083,2.97788 4.30685,2.97229 4.31278,2.96632 4.31861,2.96 4.32433,2.95332 4.32992,2.94631 4.33538,2.93896 4.34069,2.9313 4.34584,2.92333 4.35083,2.91506 4.35563,2.90649 4.36024,2.89765 4.36465,2.88854 4.36884,2.87918 4.37281,2.86956 4.37654,2.8597 "/>
     <polygon id="_492850448" class="fil1" points="4.20131,3.00902 7.98758,6.7953 7.98491,6.79435 7.98229,6.79331 7.97972,6.79217 7.9772,6.79093 7.97473,6.78959 7.97232,6.78815 7.96995,6.78662 7.96764,6.785 4.18137,2.99872 4.18369,3.00035 4.18605,3.00188 4.18846,3.00331 4.19093,3.00466 4.19345,3.0059 4.19602,3.00704 4.19864,3.00808 "/>
     <polygon id="_492850928" class="fil1" points="4.18137,2.99872 7.96764,6.785 7.96486,6.79604 7.96207,6.80688 7.95926,6.81752 7.95645,6.82794 7.95363,6.83814 7.95081,6.84813 7.948,6.85789 7.94519,6.86741 7.94239,6.8767 7.9396,6.88576 7.93683,6.89456 7.93407,6.90311 7.93134,6.91141 7.92864,6.91944 7.92597,6.92721 7.92333,6.93471 7.92074,6.94193 7.91818,6.94887 7.91567,6.95552 7.9132,6.96189 7.91079,6.96795 7.90843,6.97372 7.90613,6.97918 7.90389,6.98433 7.90172,6.98916 7.89962,6.99367 7.89759,6.99786 7.89563,7.00171 7.89376,7.00523 7.89197,7.00841 7.89027,7.01124 7.88866,7.01372 4.10239,3.22745 4.104,3.22497 4.1057,3.22214 4.10749,3.21896 4.10937,3.21544 4.11132,3.21159 4.11335,3.2074 4.11545,3.20289 4.11762,3.19806 4.11986,3.19291 4.12216,3.18745 4.12452,3.18168 4.12693,3.17561 4.1294,3.16925 4.13191,3.1626 4.13447,3.15566 4.13707,3.14844 4.1397,3.14094 4.14237,3.13317 4.14507,3.12514 4.14781,3.11684 4.15056,3.10829 4.15333,3.09948 4.15612,3.09043 4.15892,3.08114 4.16173,3.07161 4.16455,3.06186 4.16737,3.05187 4.17019,3.04167 4.173,3.03124 4.1758,3.02061 4.17859,3.00977 "/>
     <polygon id="_492851048" class="fil1" points="4.10239,3.22745 7.88866,7.01372 7.88407,7.02026 7.87897,7.02712 7.87335,7.0343 7.86724,7.04179 7.86066,7.04957 7.85361,7.05762 7.84611,7.06593 7.83818,7.07448 7.82982,7.08326 7.82107,7.09226 7.81193,7.10144 7.80241,7.11082 7.79253,7.12036 7.78231,7.13006 7.77176,7.13989 7.7609,7.14984 7.74974,7.1599 7.73829,7.17005 7.72658,7.18028 7.71461,7.19057 7.7024,7.2009 7.68997,7.21127 7.67733,7.22165 7.66449,7.23203 7.65148,7.24239 7.6383,7.25273 7.62497,7.26302 7.61151,7.27325 7.59793,7.2834 7.58424,7.29347 7.57047,7.30343 7.55662,7.31326 3.77035,3.52699 3.7842,3.51715 3.79798,3.5072 3.81167,3.49713 3.82524,3.48698 3.8387,3.47675 3.85204,3.46646 3.86521,3.45612 3.87822,3.44576 3.89106,3.43537 3.9037,3.425 3.91613,3.41463 3.92834,3.4043 3.94031,3.39401 3.95202,3.38378 3.96347,3.37363 3.97463,3.36357 3.9855,3.35361 3.99604,3.34378 4.00626,3.33409 4.01614,3.32455 4.02566,3.31517 4.0348,3.30598 4.04356,3.29699 4.05191,3.28821 4.05984,3.27965 4.06734,3.27135 4.07439,3.2633 4.08098,3.25552 4.08709,3.24803 4.0927,3.24085 4.09781,3.23398 "/>
     <polygon id="_492850376" class="fil1" points="3.77035,3.52699 7.55662,7.31326 7.55662,7.45962 3.77035,3.67335 "/>
     <polygon id="_492850520" class="fil1" points="3.77035,3.67335 7.55662,7.45962 7.58122,7.57893 3.79495,3.79265 "/>
     <polygon id="_492851264" class="fil1" points="3.9563,3.86438 7.74256,7.65065 7.74336,7.652 3.95709,3.86573 "/>
     <polygon id="_492851432" class="fil1" points="4.80144,4.35369 8.58771,8.13996 8.59979,8.15387 8.61154,8.16954 8.62298,8.1869 8.63411,8.20587 8.64495,8.22638 8.65552,8.24836 8.66581,8.27174 8.67584,8.29645 8.68563,8.32241 8.69519,8.34956 8.70453,8.37782 8.71366,8.40712 8.72259,8.43739 8.73133,8.46856 8.73991,8.50055 8.74832,8.53329 8.75658,8.56672 8.7647,8.60076 8.7727,8.63534 8.78059,8.67039 8.78837,8.70583 8.79606,8.74159 8.80368,8.77761 8.81122,8.81381 8.81872,8.85012 8.82617,8.88647 8.83358,8.92278 8.84098,8.959 8.84838,8.99503 8.85578,9.03081 8.86319,9.06627 5.07692,5.28 5.06951,5.24454 5.06211,5.20876 5.05472,5.17272 5.04731,5.13651 5.0399,5.1002 5.03245,5.06385 5.02496,5.02754 5.01741,4.99134 5.0098,4.95532 5.0021,4.91956 4.99432,4.88411 4.98644,4.84907 4.97844,4.81449 4.97031,4.78045 4.96205,4.74702 4.95364,4.71428 4.94507,4.68228 4.93632,4.65111 4.92739,4.62085 4.91826,4.59155 4.90893,4.56329 4.89937,4.53614 4.88957,4.51018 4.87954,4.48547 4.86925,4.46209 4.85869,4.44011 4.84784,4.4196 4.83671,4.40063 4.82528,4.38327 4.81352,4.3676 "/>
     <polygon id="_492851744" class="fil1" points="3.05631,3.527 6.84257,7.31327 6.82872,7.30344 6.81495,7.29348 6.80126,7.28341 6.78768,7.27326 6.77422,7.26303 6.76089,7.25274 6.74771,7.2424 6.73469,7.23204 6.72186,7.22165 6.70921,7.21127 6.69678,7.20091 6.68457,7.19057 6.6726,7.18028 6.66089,7.17006 6.64944,7.15991 6.63828,7.14984 6.62741,7.13989 6.61686,7.13006 6.60664,7.12037 6.59676,7.11082 2.8105,3.32455 2.82037,3.33409 2.83059,3.34379 2.84115,3.35362 2.85201,3.36357 2.86317,3.37363 2.87462,3.38378 2.88633,3.39401 2.8983,3.4043 2.91051,3.41464 2.92294,3.425 2.93559,3.43538 2.94843,3.44576 2.96144,3.45613 2.97462,3.46646 2.98795,3.47676 3.00141,3.48699 3.015,3.49714 3.02868,3.5072 3.04246,3.51717 "/>
     <polygon id="_492851096" class="fil1" points="4.39898,5.28 8.18525,9.06627 8.12825,9.06627 4.34198,5.28 "/>
     <polygon id="_492851648" class="fil1" points="4.34198,5.28 8.12825,9.06627 7.6667,9.06627 3.88043,5.28 "/>
     <polygon id="_492851720" class="fil1" points="3.88043,5.28 7.6667,9.06627 7.56924,9.06627 3.78297,5.28 "/>
     <polygon id="_492851768" class="fil1" points="3.78297,5.28 7.56924,9.06627 7.40001,9.06627 3.61374,5.28 "/>
     <polygon id="_492851840" class="fil1" points="3.61374,5.28 7.40001,9.06627 7.38977,9.06627 3.6035,5.28 "/>
     <polygon id="_492851192" class="fil1" points="3.6035,5.28 7.38977,9.06627 7.1996,9.06627 3.41333,5.28 "/>
     <polygon id="_492851360" class="fil1" points="3.41333,5.28 7.1996,9.06627 7.00942,9.06627 3.22315,5.28 "/>
     <polygon id="_492852560" class="fil1" points="3.22315,5.28 7.00942,9.06627 6.99767,9.06627 3.2114,5.28 "/>
     <polygon id="_492852248" class="fil1" points="3.2114,5.28 6.99767,9.06627 6.8928,9.06627 3.10653,5.28 "/>
     <polygon id="_492852512" class="fil1" points="3.10653,5.28 6.8928,9.06627 6.73098,9.06627 2.94472,5.28 "/>
     <polygon id="_492852200" class="fil1" points="2.94472,5.28 6.73098,9.06627 6.27091,9.06627 2.48465,5.28 "/>
     <polygon id="_492852224" class="fil1" points="2.48465,5.28 6.27091,9.06627 6.21394,9.06627 2.42767,5.28 "/>
     <polygon id="_492852584" class="fil1" points="2.42767,5.28 6.21394,9.06627 5.53598,9.06627 1.74971,5.28 "/>
     <polygon id="_492851864" class="fil1" points="2.64476,2.99671 6.43103,6.78298 6.42844,6.78496 6.42579,6.78682 6.42307,6.78856 6.42028,6.79017 6.41741,6.79166 6.41449,6.79302 6.41149,6.79424 6.40843,6.79533 2.62216,3.00906 2.62522,3.00797 2.62822,3.00674 2.63115,3.00539 2.63401,3.0039 2.6368,3.00229 2.63952,3.00055 2.64218,2.99869 "/>
     <polygon id="_492852080" class="fil1" points="2.62216,3.00906 6.40843,6.79533 6.40249,6.797 6.39646,6.79814 6.39035,6.79876 6.38417,6.79888 6.37794,6.7985 6.37167,6.79762 6.36535,6.79626 6.35902,6.79444 6.35268,6.79216 6.34634,6.78943 6.34001,6.78626 6.33371,6.78265 6.32744,6.77863 6.32121,6.7742 6.31504,6.76938 6.30894,6.76416 6.30292,6.75856 2.51665,2.97229 2.52267,2.97789 2.52877,2.98311 2.53494,2.98793 2.54117,2.99236 2.54744,2.99638 2.55374,2.99998 2.56007,3.00316 2.56641,3.00589 2.57276,3.00817 2.57909,3.00999 2.5854,3.01135 2.59167,3.01222 2.59791,3.01261 2.60408,3.01249 2.61019,3.01187 2.61622,3.01073 "/>
     <polygon id="_492851912" class="fil1" points="5.07692,5.28 8.86319,9.06627 8.18525,9.06627 4.39898,5.28 "/>
    </g>
    <path id="_435569080" class="fil1" d="M5.07692 5.28l0 0zm-2.68063 -1.17797l0 0zm0.0175512 -0.00971654l0 0zm0.0180787 -0.00990157l0 0zm0.0186142 -0.0100945l0 0zm0.0191614 -0.0102835l0 0zm0.0197126 -0.0104724l0 0zm0.535681 -0.256819l0 0zm-0.292555 -1.96994c0.188681,-0.243272 0.81361,-0.417283 1.21828,-0.125398 0.335146,0.0716024 0.340398,0.601161 0.296783,0.934146 0.0278071,-0.0195433 0.0570984,-0.0269961 0.0834016,-0.0183268 0.0628898,0.020689 0.0848307,0.125646 0.0490236,0.234386 -0.0358031,0.108776 -0.115823,0.180138 -0.178717,0.159409 -0.00719291,-0.00236614 -0.0138386,-0.00584646 -0.019937,-0.0102992 -0.0295394,0.118843 -0.0622835,0.20415 -0.0789843,0.228728 -0.0460394,0.067811 -0.183969,0.195319 -0.332035,0.299535l0 0.146358 0.0245984 0.119307 0.0264646 0.0117362 0.0325827 0.0145512 0.00283071 0.00127165 0.0994646 0.0441654 0.000799213 0.00135433 0.0199449 0.00919291 0.0289803 0.0134528 0.0282874 0.0132362 0.0276024 0.0130197 0.0269291 0.012811 0.0262638 0.0125984 0.0256063 0.0123898 0.0249606 0.012185 0.0243189 0.0119764 0.0236929 0.0117717 0.0230709 0.0115669 0.0224606 0.0113661 0.0218543 0.0111654 0.0212677 0.0109685 0.0206811 0.0107677 0.0201024 0.0105748 0.0195433 0.010378 0.0189803 0.010189 0.018437 0.00999213 0.0178976 0.00980709 0.0173701 0.00961417 0.0168465 0.00943307 0.0163386 0.00924409 0.0158346 0.00905906 0.0153425 0.00887795 0.0148583 0.00869685 0.0143819 0.00851575 0.0139173 0.00833858 0.0134646 0.00816142 0.0130118 0.00798819 0.0125748 0.00781102 0.0121457 0.00764173 0.0117283 0.0074685 0.011315 0.00730315c0.0889016,0.0577362 0.13922,0.0993661 0.171913,0.128307 0.134339,0.118902 0.208685,0.562091 0.287902,0.938398l-0.677937 0 -0.057 0 -0.461555 0 -0.0974567 0 -0.169228 0 -0.0102402 0 -0.190173 0 -0.190177 0 -0.0117559 0 -0.10487 0 -0.161811 0 -0.460071 0 -0.0569724 0 -0.677965 0c0.0792441,-0.376307 0.153563,-0.819496 0.287933,-0.938398l0.00418504 -0.00368898 0.00438976 -0.00382677 0.00460236 -0.0039685 0.00482677 -0.00411024 0.00505512 -0.00425591 0.00529134 -0.00439764 0.00554331 -0.00454724 0.00579921 -0.00469291 0.00606299 -0.00484252 0.00633465 -0.00499213 0.00662205 -0.00514567 0.00690945 -0.00529528 0.0072126 -0.00545276 0.00751969 -0.0056063 0.00783858 -0.00576378 0.00816535 -0.00592126 0.0085 -0.00607874 0.00884252 -0.00624016 0.00919685 -0.00640157 0.00955512 -0.00656693 0.00992913 -0.00672835 0.0103031 -0.0068937 0.0106929 -0.00706299 0.0110906 -0.00722835 0.0114961 -0.00739764 0.0119055 -0.00757087 0.0123307 -0.00774016 0.0127598 -0.00791732 0.0132047 -0.00808661 0.0136496 -0.00826772 0.0141063 -0.00844094 0.0145709 -0.00861811 0.0150472 -0.00880315 0.0155315 -0.00898031 0.0160236 -0.00916142 0.0165236 -0.00934646 0.0170354 -0.0095315 0.0175512 -0.00971654 0.0180787 -0.00990157 0.0186142 -0.0100945 0.0191614 -0.0102835 0.0197126 -0.0104724c0.13565,-0.0717205 0.31013,-0.156732 0.535681,-0.256827l0.0312126 -0.12139 0 -0.146346c-0.148079,-0.10422 -0.286028,-0.231736 -0.332071,-0.299547 -0.0167874,-0.0247205 -0.0498031,-0.110843 -0.0794724,-0.230744 -0.00680315,0.00544094 -0.0143465,0.00962598 -0.0226024,0.0123465 -0.0628622,0.0206969 -0.142882,-0.0506654 -0.178685,-0.159441 -0.0358386,-0.10874 -0.0138661,-0.213697 0.0490315,-0.234386 0.0304409,-0.0100394 0.0649094,0.00151969 0.0964291,0.0284646 -0.00120866,-0.0178268 -0.00213386,-0.0358071 -0.00281102,-0.053878 -0.0272441,-0.270429 -0.0163307,-0.555185 0.146413,-0.765008z"/>
   </g>
  </g>
  <path class="fil2" d="M3.41333 0c1.88513,0 3.41333,1.5282 3.41333,3.41333 0,1.88513 -1.5282,3.41333 -3.41333,3.41333 -1.88513,0 -3.41333,-1.5282 -3.41333,-3.41333 0,-1.88513 1.5282,-3.41333 3.41333,-3.41333z"/>
  <path class="fil3" d="M2.49251 2.61523c0.0628622,-0.0207283 0.142882,0.0506339 0.178689,0.159406 0.0358031,0.10874 0.0138622,0.213689 -0.0490354,0.234421 -0.0628622,0.0206969 -0.142882,-0.0506654 -0.178689,-0.159437 -0.0358346,-0.10874 -0.0138622,-0.213701 0.0490354,-0.23439z"/>
  <path class="fil3" d="M4.331 2.61523c-0.0628937,-0.0207283 -0.142913,0.0506654 -0.17872,0.159406 -0.0358031,0.10874 -0.0138622,0.213689 0.0490236,0.234386 0.0628976,0.0207323 0.142917,-0.0506299 0.178724,-0.159402 0.0358031,-0.10874 0.0138622,-0.213701 -0.0490276,-0.23439z"/>
  <path class="fil4" d="M3.08074 3.77022c-0.735335,0.32235 -0.955913,0.494205 -1.0431,0.571378 -0.13437,0.118902 -0.208689,0.562091 -0.287937,0.938398l1.66363 0 1.66362 0c-0.079248,-0.376307 -0.153598,-0.819496 -0.287933,-0.938398 -0.087185,-0.0771732 -0.299689,-0.244594 -1.03502,-0.566984l-0.67326 -0.0043937z"/>
  <path class="fil5" d="M3.0807 3.77022c-0.735299,0.32235 -0.955878,0.494205 -1.04306,0.571378 -0.13437,0.118902 -0.208689,0.562091 -0.287937,0.938398l1.66363 0 1.66359 0c-0.0792402,-0.376307 -0.153567,-0.819496 -0.287925,-0.938398 -0.0871614,-0.0771732 -0.299665,-0.244594 -1.035,-0.566984l-0.673295 -0.0043937z"/>
  <path class="fil6" d="M3.77035 3.12764l0 0.815071c-0.196374,0.240508 -0.517705,0.232177 -0.714047,0l0 -0.815071c0,-0.440118 0.714047,-0.440118 0.714047,0z"/>
  <path class="fil7" d="M3.77035 3.12764l0 0.545705c-0.13511,0.0984843 -0.265327,0.153654 -0.357024,0.153654 -0.0916969,0 -0.221941,-0.0551693 -0.357024,-0.153654l0 -0.545705c0,-0.440118 0.714047,-0.440118 0.714047,0z"/>
  <path class="fil6" d="M3.41333 1.6643c-1.1983,0 -0.76737,1.44791 -0.689094,1.56316 0.0863071,0.127106 0.495488,0.463996 0.689094,0.463996 0.193602,0 0.60276,-0.33689 0.689059,-0.463996 0.078311,-0.115248 0.50924,-1.56316 -0.689059,-1.56316z"/>
  <path class="fil8" d="M2.8656 2.14885c-0.0695079,0.379744 -0.243579,0.344299 -0.229772,0.789921 -0.0559134,-0.347311 -0.139429,-0.809512 0.0967087,-1.11396 0.188681,-0.243272 0.81361,-0.417283 1.21828,-0.125398 0.446953,0.0954882 0.307185,1.00547 0.247252,1.17747 -0.0418346,-0.278587 -0.135551,-0.394638 -0.253862,-0.722185 -0.160516,0.115102 -0.87285,0.14078 -1.07861,-0.00584646z"/>
  <path class="fil9" d="M3.41519 4.11997c0,0 -0.498252,0.118953 -0.498252,0.14911 0,0.0301575 0.189594,1.01092 0.189594,1.01092l0.676445 0 0.0775276 -1.0066 -0.445315 -0.153429z"/>
  <polygon class="fil10" points="3.05631,3.78096 3.05631,3.94271 3.2114,5.28 2.94471,5.28 2.65133,4.68438 2.93137,4.49769 2.58913,4.33768 2.90384,3.84933 "/>
  <polygon class="fil10" points="3.77035,3.78181 3.77038,3.94271 3.61374,5.28 3.88043,5.28 4.17378,4.68438 3.89376,4.49769 4.236,4.33768 3.9563,3.86438 "/>
  <polygon class="fil11" points="3.05631,3.67335 3.02509,3.79474 3.11245,4.42699 3.41519,4.12 "/>
  <path class="fil12" d="M3.25979 4.28535l0.0864685 0.133953c0.044689,0 0.0894331,0 0.134122,0l0.0864921 -0.133953 -0.151685 -0.165382 -0.155398 0.165382z"/>
  <polygon class="fil13" points="3.34626,4.4193 3.22316,5.28 3.6035,5.28 3.4804,4.4193 "/>
  <polygon class="fil11" points="3.77035,3.67335 3.79498,3.79277 3.71291,4.4333 3.41519,4.12 "/>
  <path class="fil14" d="M2.42767 5.28l0.0569724 0c-0.00254724,-0.253343 -0.00254724,-0.435933 -0.00254724,-0.435933 0,0 -0.0252362,0.189756 -0.0544252,0.435933z"/>
  <path class="fil14" d="M4.39898 5.28l-0.057 0c0.00254724,-0.253343 0.00254724,-0.435933 0.00254724,-0.435933 0,0 0.0252323,0.189756 0.0544528,0.435933z"/>
  <path class="fil15" d="M3.05041 3.17998c0.241004,0.086248 0.520752,0.0722638 0.725839,0 -0.0669213,0.308339 -0.597862,0.315827 -0.725839,0z"/>
 </g>
</svg>
